# File created by Blade
# Date/Time:  Wed Sep 24 19:25:39 2014
# Frame Rate: 120.000 fps
#------------------------------------------------------
:FULLY-SPECIFIED
:DEGREES
4115
root -11.193905 33.047881 -6.475962 8.976553 10.947738 -0.696739
Spine -12.141344 0.956767 -5.997718
Head -10.090576 -13.612043 10.310858
LeftShoulder -11.689579 15.411789 31.820807
LeftArm 18.810444 -19.362145 -26.047209
LeftForeArm 11.568136 -0.000000 11.308152
LeftHand -30.015742 0.000000 -6.581992
LeftHandThumb1 -26.253704 0.000000 33.147579
RightShoulder -18.795522 18.110988 -42.879940
RightArm -13.728516 26.612938 25.770905
RightForeArm 2.287836 -0.000000 21.702616
RightHand -12.949207 -0.000000 -23.627628
RightHandThumb1 -24.326973 -0.000000 -32.862282
LeftUpLeg -11.179596 -4.427100 1.028993
LeftLeg 2.127364 -0.000000 -0.000000
LeftFoot -18.114249 9.279567 -15.852068
LeftToeBase -2.094599 -0.000000 0.000000
RightUpLeg -11.493269 1.231324 -0.316144
RightLeg 8.671890 -0.000000 -0.000000
RightFoot -15.839842 -8.458836 -5.309082
RightToeBase -3.716440 -0.000000 0.000000
4116
root -11.174046 33.049605 -6.485083 8.856129 10.864733 -0.692862
Spine -12.151223 0.949037 -5.992809
Head -10.037699 -13.458362 10.314890
LeftShoulder -11.674265 15.450132 31.830255
LeftArm 18.870314 -19.322931 -26.085416
LeftForeArm 11.480600 -0.000000 11.284492
LeftHand -30.023399 -0.000000 -6.754603
LeftHandThumb1 -26.253704 0.000000 33.147579
RightShoulder -18.758846 18.219856 -42.841735
RightArm -13.668165 26.492164 25.844877
RightForeArm 2.230909 -0.000000 21.816440
RightHand -12.843402 -0.000000 -23.416565
RightHandThumb1 -24.326973 -0.000000 -32.862282
LeftUpLeg -11.091489 -4.452865 0.973335
LeftLeg 2.220454 -0.000000 -0.000000
LeftFoot -18.317790 9.242753 -15.847387
LeftToeBase -2.166824 -0.000000 0.000000
RightUpLeg -11.392945 1.288681 -0.365558
RightLeg 8.695776 -0.000000 -0.000000
RightFoot -15.969788 -8.432439 -5.254255
RightToeBase -3.875345 -0.000000 0.000000
4117
root -11.154043 33.049937 -6.493618 8.726171 10.774837 -0.702881
Spine -12.166048 0.997910 -5.987799
Head -9.988919 -13.361131 10.298263
LeftShoulder -11.586287 15.399341 31.885657
LeftArm 18.894225 -19.160687 -26.091203
LeftForeArm 11.480343 -0.000000 11.169148
LeftHand -29.760257 -0.000000 -6.835127
LeftHandThumb1 -26.253704 0.000000 33.147579
RightShoulder -18.749695 18.364585 -42.859399
RightArm -13.598747 26.284488 25.938163
RightForeArm 2.178183 -0.000000 21.767319
RightHand -12.596197 -0.000000 -23.348664
RightHandThumb1 -24.326973 -0.000000 -32.862282
LeftUpLeg -11.091055 -4.022676 0.859466
LeftLeg 2.518352 -0.000000 -0.000000
LeftFoot -18.515812 8.717003 -15.732611
LeftToeBase -2.129274 -0.000000 0.000000
RightUpLeg -11.291291 1.346210 -0.398648
RightLeg 8.734589 -0.000000 -0.000000
RightFoot -16.103514 -8.441043 -5.226143
RightToeBase -3.949366 -0.000000 0.000000
4118
root -11.133971 33.051431 -6.504739 8.615471 10.688458 -0.705262
Spine -12.178687 1.006469 -5.958428
Head -9.969440 -13.245193 10.316658
LeftShoulder -11.588874 15.338986 31.866684
LeftArm 18.930829 -18.934758 -26.031939
LeftForeArm 11.404274 -0.000000 11.108252
LeftHand -29.633351 0.000000 -7.079578
LeftHandThumb1 -26.253704 0.000000 33.147579
RightShoulder -18.717207 18.295365 -42.783059
RightArm -13.319577 26.215065 26.090454
RightForeArm 2.145820 -0.000000 21.664298
RightHand -12.506050 -0.000000 -23.429390
RightHandThumb1 -24.326973 -0.000000 -32.862282
LeftUpLeg -11.025031 -4.060135 0.819973
LeftLeg 2.613116 -0.000000 -0.000000
LeftFoot -18.712977 8.670780 -15.709776
LeftToeBase -2.153675 -0.000000 0.000000
RightUpLeg -11.207427 1.424245 -0.442866
RightLeg 8.762958 -0.000000 -0.000000
RightFoot -16.218710 -8.490316 -5.238439
RightToeBase -3.870649 -0.000000 0.000000
4119
root -11.111873 33.052068 -6.518465 8.519719 10.607047 -0.687388
Spine -12.208604 1.030560 -5.950149
Head -9.922727 -13.153620 10.300070
LeftShoulder -11.549547 15.292090 31.861841
LeftArm 18.948089 -18.738060 -25.984054
LeftForeArm 11.378850 -0.000000 11.074187
LeftHand -29.510638 -0.000000 -7.264823
LeftHandThumb1 -26.253704 0.000000 33.147579
RightShoulder -18.680219 18.422676 -42.846814
RightArm -13.241563 25.958102 26.212227
RightForeArm 2.154866 -0.000000 21.558609
RightHand -12.590629 0.000000 -23.300995
RightHandThumb1 -24.326973 -0.000000 -32.862282
LeftUpLeg -10.976284 -4.179936 0.766789
LeftLeg 2.725328 -0.000000 -0.000000
LeftFoot -18.944657 8.718003 -15.683658
LeftToeBase -2.213267 -0.000000 0.000000
RightUpLeg -11.136034 1.482192 -0.510538
RightLeg 8.782826 -0.000000 -0.000000
RightFoot -16.335862 -8.523817 -5.184993
RightToeBase -3.873980 -0.000000 0.000000
4120
root -11.091338 33.052834 -6.531114 8.407090 10.505498 -0.672898
Spine -12.221691 1.091592 -5.949137
Head -9.900237 -13.092794 10.278150
LeftShoulder -11.530774 15.294271 31.852062
LeftArm 19.021419 -18.637355 -25.981686
LeftForeArm 11.405327 -0.000000 11.100944
LeftHand -29.504623 -0.000000 -7.514264
LeftHandThumb1 -26.253704 0.000000 33.147579
RightShoulder -18.640585 18.286613 -42.763287
RightArm -12.912467 25.930984 26.373408
RightForeArm 2.198039 -0.000000 21.337309
RightHand -12.531921 -0.000000 -23.533533
RightHandThumb1 -24.326973 -0.000000 -32.862282
LeftUpLeg -10.899111 -4.294672 0.718998
LeftLeg 2.823594 -0.000000 -0.000000
LeftFoot -19.140890 8.768987 -15.705836
LeftToeBase -2.297060 -0.000000 0.000000
RightUpLeg -11.043048 1.567878 -0.571564
RightLeg 8.786544 -0.000000 -0.000000
RightFoot -16.411970 -8.600959 -5.173291
RightToeBase -3.829458 -0.000000 0.000000
4121
root -11.072475 33.053335 -6.543804 8.285814 10.416925 -0.663102
Spine -12.216858 1.112564 -5.940673
Head -9.900307 -12.948851 10.287365
LeftShoulder -11.524129 15.303290 31.842128
LeftArm 19.070327 -18.515975 -25.956183
LeftForeArm 11.400598 -0.000000 11.119706
LeftHand -29.512293 -0.000000 -7.606436
LeftHandThumb1 -26.253704 0.000000 33.147579
RightShoulder -18.542952 18.266515 -42.721673
RightArm -12.752606 25.839644 26.472248
RightForeArm 2.290305 0.000000 21.161577
RightHand -12.337519 -0.000000 -23.616099
RightHandThumb1 -24.326973 -0.000000 -32.862282
LeftUpLeg -10.824416 -4.410908 0.682044
LeftLeg 2.921669 -0.000000 -0.000000
LeftFoot -19.367814 8.857407 -15.703391
LeftToeBase -2.305887 -0.000000 0.000000
RightUpLeg -10.940936 1.623135 -0.620955
RightLeg 8.785675 -0.000000 -0.000000
RightFoot -16.491864 -8.609616 -5.117117
RightToeBase -3.785078 -0.000000 0.000000
4122
root -11.053345 33.053734 -6.557611 8.159552 10.318097 -0.654787
Spine -12.208848 1.215711 -5.928392
Head -9.854948 -12.992515 10.266933
LeftShoulder -11.460379 15.310779 31.822839
LeftArm 19.132485 -18.452217 -25.946939
LeftForeArm 11.429665 -0.000000 11.158924
LeftHand -29.533942 0.000000 -7.617913
LeftHandThumb1 -26.253704 0.000000 33.147579
RightShoulder -18.514661 18.336692 -42.775131
RightArm -12.653827 25.627197 26.564893
RightForeArm 2.311488 -0.000000 20.976609
RightHand -12.211639 -0.000000 -23.654270
RightHandThumb1 -24.326973 -0.000000 -32.862282
LeftUpLeg -10.750262 -4.531641 0.644058
LeftLeg 3.024673 -0.000000 -0.000000
LeftFoot -19.586876 8.996444 -15.505474
LeftToeBase -2.090338 -0.000000 0.000000
RightUpLeg -10.847055 1.686419 -0.676695
RightLeg 8.814371 -0.000000 -0.000000
RightFoot -16.575668 -8.558454 -5.032227
RightToeBase -3.929520 -0.000000 0.000000
4123
root -11.033777 33.053388 -6.573832 8.063943 10.219671 -0.634103
Spine -12.225076 1.269527 -5.927175
Head -9.875102 -12.946167 10.232585
LeftShoulder -11.447201 15.331444 31.783195
LeftArm 19.242004 -18.306273 -25.869623
LeftForeArm 11.374155 -0.000000 11.030955
LeftHand -29.235205 -0.000000 -7.463041
LeftHandThumb1 -26.253704 0.000000 33.147579
RightShoulder -18.444734 18.306474 -42.737968
RightArm -12.441739 25.472475 26.673165
RightForeArm 2.410412 -0.000000 20.751951
RightHand -12.120734 0.000000 -23.825057
RightHandThumb1 -24.326973 -0.000000 -32.862282
LeftUpLeg -10.711943 -4.690124 0.590410
LeftLeg 3.157462 -0.000000 -0.000000
LeftFoot -19.779694 9.108297 -15.637047
LeftToeBase -2.245361 -0.000000 0.000000
RightUpLeg -10.791750 1.744314 -0.746333
RightLeg 8.857761 -0.000000 -0.000000
RightFoot -16.661656 -8.509385 -4.967240
RightToeBase -4.017683 -0.000000 0.000000
4124
root -11.019057 33.054098 -6.586628 7.932267 10.122884 -0.649535
Spine -12.206064 1.342396 -5.882472
Head -9.837924 -12.919337 10.226240
LeftShoulder -11.402209 15.321562 31.767994
LeftArm 19.229982 -18.225633 -25.847545
LeftForeArm 11.413681 -0.000000 11.117993
LeftHand -29.216789 -0.000000 -7.481859
LeftHandThumb1 -26.253704 0.000000 33.147579
RightShoulder -18.408315 18.327226 -42.737800
RightArm -12.284989 25.371125 26.766211
RightForeArm 2.426959 -0.000000 20.618948
RightHand -12.048966 -0.000000 -23.702473
RightHandThumb1 -24.326973 -0.000000 -32.862282
LeftUpLeg -10.635052 -4.768825 0.583404
LeftLeg 3.265455 -0.000000 -0.000000
LeftFoot -19.914256 9.158497 -15.531380
LeftToeBase -2.438781 -0.000000 0.000000
RightUpLeg -10.695402 1.772112 -0.763547
RightLeg 8.861665 -0.000000 -0.000000
RightFoot -16.710361 -8.388053 -4.987588
RightToeBase -4.228721 -0.000000 0.000000
4125
root -11.000458 33.054239 -6.604760 7.848450 10.040983 -0.622681
Spine -12.236977 1.446348 -5.899992
Head -9.828183 -12.979860 10.219249
LeftShoulder -11.304954 15.311496 31.774956
LeftArm 19.255642 -18.116486 -25.810369
LeftForeArm 11.371239 -0.000000 11.172329
LeftHand -29.396949 -0.000000 -7.402274
LeftHandThumb1 -26.253704 0.000000 33.147579
RightShoulder -18.372077 18.380486 -42.750064
RightArm -12.255062 25.276099 26.776668
RightForeArm 2.472061 -0.000000 20.543979
RightHand -11.917907 -0.000000 -23.480342
RightHandThumb1 -24.326973 -0.000000 -32.862282
LeftUpLeg -10.617182 -4.963959 0.542868
LeftLeg 3.385369 -0.000000 -0.000000
LeftFoot -20.152999 9.321006 -15.605195
LeftToeBase -2.243071 -0.000000 0.000000
RightUpLeg -10.654961 1.824728 -0.837144
RightLeg 8.896423 -0.000000 -0.000000
RightFoot -16.779053 -8.325731 -4.938351
RightToeBase -4.241301 -0.000000 0.000000
